<svg xmlns="http://www.w3.org/2000/svg" viewBox="0 0 190.001 21.546" width="190px" height="21.55px"><defs><style>.a{fill:#00384d;}</style></defs><g transform="translate(44.612 0.295)"><path class="a" d="M109.848,21.53H105.8V.7h1.1l10.246,11.975V1.164h4.132V21.952h-1.1L109.848,10.44Z" transform="translate(-105.8 -0.7)"/></g><g transform="translate(24.161)"><path class="a" d="M66.324,0H65.9L57.3,21.125h4.638l.8-2.193L64.215,15.1l1.9-5.313L67.968,15.1l1.518,3.837.8,2.193h4.6Z" transform="translate(-57.3)"/></g><g transform="translate(63.391 0.464)"><path class="a" d="M160.695,5.232c-8.054,0-8.054,12.439,0,12.439a8.312,8.312,0,0,0,3.921-.928l.548,4.217a13.146,13.146,0,0,1-4.47.843c-13.83,0-13.788-20.7,0-20.7a9.715,9.715,0,0,1,4.006.8l-.464,4.174a7.329,7.329,0,0,0-3.542-.843" transform="translate(-150.337 -1.1)"/></g><g transform="translate(80.379 0.379)"><path class="a" d="M201.156,5.117c-8.138,0-8.138,12.608,0,12.608,8.138-.042,8.138-12.608,0-12.608m0-4.217c14,0,14,21,0,21-14.041,0-14.041-21,0-21" transform="translate(-190.625 -0.9)"/></g><g transform="translate(126.667 0.759)"><path class="a" d="M300.4,22.166c2.446-5.482,4.891-10.963,7.337-16.4H301.5V1.8h12.355c-2.446,5.439-4.891,10.837-7.337,16.276h7.59v4.09Z" transform="translate(-300.4 -1.8)"/><g transform="translate(16.445)"><path class="a" d="M339.4,15.04V1.8h4.09V15.04c0,4.259,6.62,4.259,6.62,0V1.8h4.048V15.082c-.042,9.656-14.758,9.656-14.758-.042" transform="translate(-339.4 -1.8)"/></g><g transform="translate(34.956)"><path class="a" d="M387.39,10.4h3.584c2.783,0,2.783-4.554,0-4.554H387.39Zm6.072,11.764-4.09-7.759H387.39v7.759H383.3V1.8h8.054c7.253,0,7.969,10.246,1.982,11.975l4.723,8.391Z" transform="translate(-383.3 -1.8)"/></g></g><g transform="translate(179.459 0.759)"><path class="a" d="M425.6,22.166V1.8h10.2V5.848h-6.156v4.09H435v4.048h-5.355v4.09h6.494v4.09Z" transform="translate(-425.6 -1.8)"/></g><g transform="translate(107.186)"><path class="a" d="M263.224,0h-.464L254.2,21.125h4.6l.8-2.193,1.518-3.837,1.9-5.313,1.855,5.313,1.518,3.837.8,2.193h4.6Z" transform="translate(-254.2)"/></g><g transform="translate(17.33 0.759)"><rect class="a" width="4.09" height="20.366"/></g><g transform="translate(0 0.717)"><path class="a" d="M4.09,18.018H7.716a2.043,2.043,0,0,0,2.066-2.066,2.008,2.008,0,0,0-2.066-2.024H4.09Zm0-8.138H7.716a1.907,1.907,0,0,0,1.9-2.066,1.907,1.907,0,0,0-1.9-2.066H4.09ZM0,1.7H8.054c3.626,0,5.861,2.572,5.777,6.2a4.841,4.841,0,0,1-1.9,4.006,4.962,4.962,0,0,1,2.108,4.09,6.047,6.047,0,0,1-6.03,6.114H0Z" transform="translate(0 -1.7)"/></g></svg>
